<svg width="92" height="92" viewBox="0 0 92 92" fill="none" xmlns="http://www.w3.org/2000/svg">
<path d="M0 0H92V92H0V0Z" fill="#D1D2D6"/>
<path d="M24.1913 76.8822L31.2318 72.6214C32.59 75.0296 33.8256 77.0672 36.7893 77.0672C39.6302 77.0672 41.4213 75.9559 41.4213 71.6334V42.2372H50.067V71.7556C50.067 80.7103 44.818 84.7862 37.1599 84.7862C30.2437 84.7862 26.229 81.2042 24.1912 76.8815" fill="#F5F6F7"/>
<path d="M54.7603 75.9545L61.7999 71.8786C63.653 74.905 66.0615 77.128 70.3224 77.128C73.9047 77.128 76.1891 75.3369 76.1891 72.8667C76.1891 69.9024 73.8425 68.8524 69.89 67.1238L67.7292 66.1968C61.4914 63.5418 57.3536 60.207 57.3536 53.1667C57.3536 46.6823 62.294 41.7416 70.0139 41.7416C75.5102 41.7416 79.4625 43.6562 82.303 48.6585L75.5715 52.9812C74.0893 50.3259 72.4841 49.2763 70.014 49.2763C67.482 49.2763 65.8762 50.8819 65.8762 52.9812C65.8762 55.575 67.482 56.6252 71.1869 58.2309L73.3482 59.1572C80.6972 62.307 84.8351 65.5179 84.8351 72.7431C84.8351 80.5249 78.7213 84.7856 70.5079 84.7856C62.4796 84.7856 57.292 80.957 54.7604 75.9545" fill="#F5F6F7"/>
</svg>
